<svg width="25" height="24" viewBox="0 0 25 24" fill="none" xmlns="http://www.w3.org/2000/svg">
<g id="ion:document-text-outline">
<path id="Vector" d="M20.25 10.3711V19.5C20.25 20.0967 20.0129 20.669 19.591 21.091C19.169 21.5129 18.5967 21.75 18 21.75H7.5C6.90326 21.75 6.33097 21.5129 5.90901 21.091C5.48705 20.669 5.25 20.0967 5.25 19.5V4.5C5.25 3.90326 5.48705 3.33097 5.90901 2.90901C6.33097 2.48705 6.90326 2.25 7.5 2.25H12.1289C12.5266 2.25006 12.908 2.40804 13.1892 2.68922L19.8108 9.31078C20.092 9.59202 20.2499 9.97341 20.25 10.3711Z" stroke="#CCCCCC" stroke-width="1.5" stroke-linejoin="round"/>
<path id="Vector_2" d="M12.75 2.625V8.25C12.75 8.64782 12.908 9.02936 13.1893 9.31066C13.4706 9.59196 13.8522 9.75 14.25 9.75H19.875M9 13.5H16.5M9 17.25H16.5" stroke="#CCCCCC" stroke-width="1.5" stroke-linecap="round" stroke-linejoin="round"/>
</g>
</svg>
